<?xml version="1.0" encoding="UTF-8"?>
<!DOCTYPE svg PUBLIC "-//W3C//DTD SVG 1.1//EN" "http://www.w3.org/Graphics/SVG/1.1/DTD/svg11.dtd">
<!-- Creator: CorelDRAW 2021 (64-Bit) -->
<svg xmlns="http://www.w3.org/2000/svg" xml:space="preserve" width="54.2412mm" height="6.5315mm" version="1.1" style="shape-rendering:geometricPrecision; text-rendering:geometricPrecision; image-rendering:optimizeQuality; fill-rule:evenodd; clip-rule:evenodd"
viewBox="0 0 86.06 10.36"
 xmlns:xlink="http://www.w3.org/1999/xlink"
 xmlns:xodm="http://www.corel.com/coreldraw/odm/2003">
 <defs>
  <style type="text/css">
   <![CDATA[
    .fil0 {fill:white;fill-rule:nonzero}
   ]]>
  </style>
 </defs>
 <g id="Layer_x0020_1">
  <metadata id="CorelCorpID_0Corel-Layer"/>
  <g id="_3050036626688">
   <path class="fil0" d="M2.99 9.43l2.04 -9.3 1.22 0 0.66 0.79 -2.17 9.44 -1.34 0 -0.4 -0.93zm-0.54 -9.3l1.72 9.37 -0.44 0.86 -1.55 0 -2.17 -10.23 2.44 0zm5.57 9.32l1.71 -9.32 2.44 0 -2.17 10.23 -1.54 0 -0.43 -0.91zm-0.9 -9.32l2.09 9.36 -0.42 0.87 -1.34 0 -2.22 -9.45 0.69 -0.78 1.21 0zm8.63 0l0 10.23 -2.46 0 0 -10.23 2.46 0zm8.49 8.33l0 1.9 -5.17 0 0 -1.9 5.17 0zm-4.29 -8.33l0 10.23 -2.47 0 0 -10.23 2.47 0zm8.65 10.23l-2.27 0 0.01 -1.9 2.25 0c0.47,0 0.87,-0.11 1.19,-0.34 0.32,-0.22 0.57,-0.56 0.74,-1.01 0.17,-0.45 0.26,-1 0.26,-1.65l0 -0.44c0,-0.49 -0.05,-0.92 -0.14,-1.29 -0.1,-0.37 -0.24,-0.69 -0.42,-0.94 -0.19,-0.25 -0.42,-0.44 -0.7,-0.57 -0.28,-0.13 -0.6,-0.19 -0.96,-0.19l-2.28 0 0 -1.9 2.28 0c0.69,0 1.33,0.12 1.91,0.35 0.58,0.24 1.08,0.57 1.5,1.01 0.42,0.44 0.75,0.95 0.98,1.55 0.23,0.6 0.35,1.26 0.35,1.99l0 0.43c0,0.72 -0.12,1.38 -0.35,1.98 -0.23,0.6 -0.56,1.12 -0.98,1.55 -0.42,0.43 -0.92,0.77 -1.49,1.01 -0.58,0.24 -1.2,0.35 -1.89,0.35zm-0.86 -10.23l0 10.23 -2.47 0 0 -10.23 2.47 0zm7.63 0l0.87 0 3.78 9.01 3.79 -9.01 0.86 0 -4.32 10.23 -0.66 0 -4.32 -10.23zm-0.27 0l0.76 0 0.09 5.76 0 4.47 -0.86 0 0 -10.23zm9.08 0l0.77 0 0 10.23 -0.86 0 0 -4.47 0.1 -5.76zm4.42 0l0 10.23 -0.86 0 0 -10.23 0.86 0zm10.39 0l0 10.23 -0.87 0 -5.88 -8.74 0 8.74 -0.86 0 0 -10.23 0.86 0 5.89 8.74 0 -8.74 0.86 0zm5.4 10.23l-2.32 0 0.01 -0.74 2.3 0c0.74,0 1.37,-0.16 1.9,-0.49 0.53,-0.33 0.94,-0.79 1.23,-1.37 0.29,-0.59 0.43,-1.26 0.43,-2.04l0 -0.95c0,-0.59 -0.08,-1.12 -0.25,-1.6 -0.17,-0.48 -0.4,-0.89 -0.71,-1.23 -0.31,-0.34 -0.68,-0.6 -1.11,-0.78 -0.43,-0.18 -0.91,-0.27 -1.44,-0.27l-2.42 0 0 -0.75 2.42 0c0.64,0 1.22,0.11 1.75,0.33 0.53,0.22 0.99,0.53 1.38,0.94 0.39,0.41 0.7,0.9 0.91,1.47 0.21,0.57 0.32,1.21 0.32,1.91l0 0.93c0,0.7 -0.11,1.34 -0.32,1.91 -0.21,0.57 -0.52,1.06 -0.91,1.47 -0.39,0.41 -0.86,0.72 -1.4,0.94 -0.54,0.22 -1.14,0.33 -1.8,0.33zm-1.93 -10.23l0 10.23 -0.86 0 0 -10.23 0.86 0z"/>
   <path class="fil0" d="M77.97 2.15l-2.49 8.08 -2.65 0 3.76 -10.23 1.68 0 -0.29 2.15zm2.06 8.08l-2.5 -8.08 -0.32 -2.15 1.7 0 3.78 10.23 -2.66 0zm-0.1 -3.82l0 1.9 -5.25 0 0 -1.9 5.25 0zm6.12 -6.41l0 10.23 -2.46 0 0 -10.23 2.46 0z"/>
  </g>
 </g>
</svg>








